<svg xmlns="http://www.w3.org/2000/svg" fill="currentColor" viewBox="0 0 178.66 185.26"><g data-name="Layer 2"><path d="M86.6 82.87 74.4 40.39a4.93 4.93 0 0 1-2.72-9.47l4.78-1.37a4.82 4.82 0 0 1 6 3.37L96 80.17a4.89 4.89 0 0 1-9.39 2.7Zm12.88 102.21a7.16 7.16 0 0 1-8.62-5.51 45.67 45.67 0 0 1 16.74-43.78c8.29-6.85 8-12.94 7.53-14.85l-.26-1.2a10.92 10.92 0 1 0-21.33 4.7 7.24 7.24 0 0 1-14.15 3.12A25.41 25.41 0 0 1 129 116.38l.26 1.2c1.06 4.79 2.13 17.63-12.47 29.52a31.2 31.2 0 0 0-12 22l27.08-6a7.24 7.24 0 0 1 3.13 14.17Zm-26.65-52.79a19.65 19.65 0 0 1-37.68 11.2 4.92 4.92 0 1 1 9.44-2.81 9.81 9.81 0 0 0 18.8-5.59 9.9 9.9 0 0 0-12.16-6.66 4.86 4.86 0 0 1-6.16-3.26c-2-6.86 8.65-5.47 6.64-12.25a5 5 0 0 0-6.15-3.27l-9.36 2.79a4.93 4.93 0 1 1-2.81-9.44l9.36-2.78a14.74 14.74 0 0 1 18 19.24 19.57 19.57 0 0 1 12.08 12.83m105.36-4.5a19.65 19.65 0 0 1-38.38-8.49 4.92 4.92 0 1 1 9.61 2.13 9.81 9.81 0 1 0 12.24-7.38l-9.45.23a6 6 0 0 1-1.27-.1c-3-.68-4.14-3.51-3.5-6.38l7.15-21a4.85 4.85 0 0 1 5.71-3.22l14.38 3.18a4.93 4.93 0 0 1-2.12 9.62l-10.11-2.24-3.45 10.18 3.05-.11a7 7 0 0 1 1.18.09 19.72 19.72 0 0 1 14.96 23.49M1.65 55.75a26.5 26.5 0 0 1 6.87-10.83l34.36-31.26a7.17 7.17 0 0 1 11.6 7.67 6.76 6.76 0 0 1-2 2.94l-15.2 13.85a2.9 2.9 0 0 1 1 .21A28.66 28.66 0 1 1 1.65 55.75m13.53 4.84a14.3 14.3 0 1 0 18.23-8.74 14.24 14.24 0 0 0-18.23 8.74M127.32 74l3.42-10.24L107 55.79a7.45 7.45 0 0 1-4.73-5.21 6.6 6.6 0 0 1 .24-3.8 6.9 6.9 0 0 1 1.9-3L148.51 2a7.16 7.16 0 0 1 7.14-1.65L159 1.48a7.16 7.16 0 0 1 4.61 9l-14.7 44.16 3.37 1.13a7.22 7.22 0 0 1 4.46 9.12 7.12 7.12 0 0 1-9 4.5l-3.38-1.13-3.42 10.25A7.18 7.18 0 0 1 127.32 74m-4.49-28 12.46 4.16 7.77-23.28Z" data-name="Layer 1"/></g></svg>