<svg xmlns="http://www.w3.org/2000/svg" viewBox="0 0 201.21 194.33"><defs><style>.cls-1{fill:#f2a819;}</style></defs><g id="Layer_2" data-name="Layer 2"><g id="Layer_1-2" data-name="Layer 1"><path class="cls-1" d="M67.23,100a6.9,6.9,0,1,1-13.7,1.6L51.85,87.8l-31-8.35L12.4,90.58a6.88,6.88,0,0,1-7.32,2.57A7,7,0,0,1,.22,84.72a6.43,6.43,0,0,1,1.14-2.4L46,22.72A6.95,6.95,0,0,1,58.5,26.08ZM50,73.06,46.83,44.8,29.76,67.61Z"/><path class="cls-1" d="M147,180a7,7,0,0,1-2.85,9.37,42.33,42.33,0,0,1-19.81,5,41.52,41.52,0,0,1,0-83,42.33,42.33,0,0,1,19.81,5,7,7,0,1,1-6.64,12.22,26.55,26.55,0,0,0-13.17-3.32,27.64,27.64,0,0,0,0,55.28,26.55,26.55,0,0,0,13.17-3.32A7,7,0,0,1,147,180Z"/><path class="cls-1" d="M192.11,41.61c6.68,14.56-1.13,29.11-11.26,33.76l-22,10.1a6.88,6.88,0,0,1-9.12-3.38l-28.91-63A6.89,6.89,0,0,1,124.21,10l17.35-8a28.23,28.23,0,0,1,10.95-2c8.49.28,15,4.85,18.83,13.15a23.42,23.42,0,0,1,2.11,13.39C181.58,27.78,188.2,33.1,192.11,41.61Zm-48.53-6.17L153,31.13c1.62-.74,9.34-4.68,5.88-12.23-3.32-7.22-8.57-5.59-10.62-4.65l-.87.4-11,5Zm35.92,12c-1.84-4-7.53-9.85-15.3-6.29l-14.87,6.83,10.09,22L174.3,63.1A15.26,15.26,0,0,0,179.22,59C182.33,54.72,180.83,50.32,179.5,47.4Z"/><path class="cls-1" d="M201.21,149.11a7,7,0,0,1-6.88,6.88,6.8,6.8,0,0,1-6.17-3.8A30.46,30.46,0,0,1,180,155a41.75,41.75,0,0,1-7.48.83c-10.08,0-17.08-5.1-19.21-14.12a14.54,14.54,0,0,1-.48-3.91,14.87,14.87,0,0,1,3.09-9.14c2.72-3.56,8.42-7.83,21.23-8.3,1.78,0,3.44-.12,5.22-.12a30.69,30.69,0,0,1,4.51.24c-.36-1.9-1.19-3.92-2.37-4.63a12.86,12.86,0,0,0-5.93-1.42,19.64,19.64,0,0,0-11.51,4,6.87,6.87,0,0,1-11.27-5.34,6.75,6.75,0,0,1,2.49-5.34,31.07,31.07,0,0,1,17-7,26.6,26.6,0,0,1,3.09-.12,27,27,0,0,1,12.93,3.09c9.49,5.34,9.85,17.79,9.85,19.1v18.62ZM186.38,134.4a28.51,28.51,0,0,0-4-.24c-1.54,0-3.2,0-6,.12-5.46.23-8.54,1.66-9.37,2.73a1.71,1.71,0,0,0-.36.94,5.2,5.2,0,0,1,.12.6c.36,1.42.83,3.44,5.81,3.44a22.71,22.71,0,0,0,4.51-.48,1,1,0,0,1,.48-.11,12,12,0,0,0,8.3-5.58Z"/><path class="cls-1" d="M77.39,66.47c0-15.3,11.63-27.76,26-27.76a24.3,24.3,0,0,1,10.68,2.49A6.63,6.63,0,0,1,118,47.37a6.38,6.38,0,0,1-.72,3,6.68,6.68,0,0,1-9.13,3.32,11.13,11.13,0,0,0-4.75-1.07c-6.64,0-12.1,6.17-12.1,13.88s5.46,13.76,12.1,13.76a11.11,11.11,0,0,0,4.75-1.06,6.1,6.1,0,0,1,2.85-.6,6.9,6.9,0,0,1,6.28,3.92,6.37,6.37,0,0,1,.72,3,6.93,6.93,0,0,1-3.92,6.29,25.94,25.94,0,0,1-10.68,2.37C89,94.11,77.39,81.66,77.39,66.47Z"/><path class="cls-1" d="M65,144c4,14.64-3.87,29.73-17.59,33.52A24.25,24.25,0,0,1,34,177.38a7,7,0,0,1-5,5.18,6.89,6.89,0,0,1-8.46-4.81L2.13,111a6.94,6.94,0,0,1,13.38-3.68l6.37,23.1a24.45,24.45,0,0,1,10.81-6.3C46.42,120.29,60.93,129.21,65,144Zm-13.27,3.65c-2-7.43-8.95-11.93-15.35-10.16s-10,9.16-8,16.59,8.8,11.85,15.32,10S53.75,154.94,51.73,147.62Z"/></g></g></svg>